<?xml version="1.0" encoding="utf-8"?>
<svg viewBox="6.765 2.491 490.743 491.923" xmlns="http://www.w3.org/2000/svg">
  <g transform="matrix(2.2600879669189453, 0, 0, 2.2600879669189453, -1445.0614013671875, 7.96625280380249)" style="">
    <svg viewBox="0 0 68 57" data-background-color="#6b21a8" height="215" width="1500" xmlns="http://www.w3.org/2000/svg">
      <g id="tight-bounds">
        <svg viewBox="0 0 68 56.37016385413411" height="56.37016385413411" width="68.2">
          <g>
            <svg viewBox="0 0 68.21101554692022 67.74091961712847" height="56.37016385413411" width="68.21101554692022">
              <g>
                <svg viewBox="0 0 68.21101554692022 67.74091961712847" height="67.74091961712847" width="68.21101554692022">
                  <g>
                    <svg xmlns="http://www.w3.org/2000/svg" version="1.1" x="0" y="0" viewBox="34.608 34.115 70.95400000000001 70.465" enable-background="new 0 0 139 139" height="67.74091961712847" width="68.21101554692022" class="icon-icon-0" data-fill-palette-color="accent" id="icon-0">
                      <path d="M95.874 51.494C93.346 54.445 92.707 58.255 92.622 60.994H72.598V34.115H69.598C39.154 34.115 34.608 52.836 34.608 63.995 34.608 73.501 39.392 81.976 46.825 87.458 43.74 88.879 41.588 91.992 41.588 95.604 41.588 100.552 45.614 104.58 50.563 104.58S59.537 100.554 59.537 95.604C59.537 94.72 59.403 93.869 59.164 93.061A34.2 34.2 0 0 0 72.928 93.311C72.733 94.043 72.618 94.811 72.618 95.604 72.618 100.552 76.642 104.58 81.592 104.58 86.539 104.58 90.565 100.554 90.565 95.604 90.565 92.258 88.721 89.339 86 87.797 93.698 82.331 98.681 73.696 98.681 63.993V63.541L98.701 61.057C98.79 59.231 99.152 56.892 100.433 55.397 101.541 54.102 103.22 53.473 105.562 53.473V47.473C100.4 47.474 97.443 49.66 95.874 51.494M50.563 98.579A2.98 2.98 0 0 1 47.588 95.603 2.977 2.977 0 0 1 50.563 92.63 2.977 2.977 0 0 1 53.537 95.603 2.98 2.98 0 0 1 50.563 98.579M81.592 98.579A2.98 2.98 0 0 1 78.618 95.603 2.977 2.977 0 0 1 81.592 92.63 2.977 2.977 0 0 1 84.565 95.603 2.98 2.98 0 0 1 81.592 98.579M66.598 40.184V60.995H40.743C41.866 47.933 50.54 40.94 66.598 40.184M66.644 87.893C53.395 87.893 42.434 78.759 40.821 66.996H66.598L92.474 66.997C90.861 78.761 79.893 87.893 66.644 87.893" fill="#612ba8" data-fill-palette-color="accent"/>
                    </svg>
                  </g>
                </svg>
              </g>
            </svg>
          </g>
          <defs/>
        </svg>
      </g>
    </svg>
  </g>
</svg>